<svg xmlns="http://www.w3.org/2000/svg" width="1000" height="560" viewBox="0 0 1000 560">
<rect width="100%" height="100%" fill="#FFFFFF"/>
<text x="90" y="35" font-family="Arial" font-size="22" font-weight="bold" fill="#172033">Recuperação da URL de referência</text>
<text x="90" y="57" font-family="Arial" font-size="13" fill="#475569">Resultados preliminares — métricas determinísticas</text>
<line x1="90" y1="430.0" x2="970" y2="430.0" stroke="#E2E8F0" stroke-width="1"/>
<text x="78" y="434.0" text-anchor="end" font-family="Arial" font-size="11" fill="#475569">0.0</text>
<line x1="90" y1="359.0" x2="970" y2="359.0" stroke="#E2E8F0" stroke-width="1"/>
<text x="78" y="363.0" text-anchor="end" font-family="Arial" font-size="11" fill="#475569">0.2</text>
<line x1="90" y1="288.0" x2="970" y2="288.0" stroke="#E2E8F0" stroke-width="1"/>
<text x="78" y="292.0" text-anchor="end" font-family="Arial" font-size="11" fill="#475569">0.4</text>
<line x1="90" y1="217.0" x2="970" y2="217.0" stroke="#E2E8F0" stroke-width="1"/>
<text x="78" y="221.0" text-anchor="end" font-family="Arial" font-size="11" fill="#475569">0.6</text>
<line x1="90" y1="146.0" x2="970" y2="146.0" stroke="#E2E8F0" stroke-width="1"/>
<text x="78" y="150.0" text-anchor="end" font-family="Arial" font-size="11" fill="#475569">0.8</text>
<line x1="90" y1="75.0" x2="970" y2="75.0" stroke="#E2E8F0" stroke-width="1"/>
<text x="78" y="79.0" text-anchor="end" font-family="Arial" font-size="11" fill="#475569">1.0</text>
<rect x="287.0" y="102.30769230769226" width="41" height="327.69230769230774" fill="#0F766E"/>
<text x="307.5" y="95.30769230769226" text-anchor="middle" font-family="Arial" font-size="10" fill="#172033">0.923</text>
<text x="310.0" y="455" text-anchor="middle" font-family="Arial" font-size="11" fill="#172033">Base com RAG</text>
<rect x="727.0" y="101.625" width="41" height="328.375" fill="#0F766E"/>
<text x="747.5" y="94.625" text-anchor="middle" font-family="Arial" font-size="10" fill="#172033">0.925</text>
<text x="750.0" y="455" text-anchor="middle" font-family="Arial" font-size="11" fill="#172033">Ajustado com RAG</text>
<text x="22" y="252.5" transform="rotate(-90 22 252.5)" text-anchor="middle" font-family="Arial" font-size="12" fill="#475569">Proporção (0–1)</text>
<rect x="90" y="506" width="14" height="14" fill="#0F766E"/>
<text x="111" y="518" font-family="Arial" font-size="12" fill="#172033">Taxa de URL exata</text>
</svg>